<svg xmlns="http://www.w3.org/2000/svg" version="1.1" xmlns:xlink="http://www.w3.org/1999/xlink" xmlns:svgjs="http://svgjs.dev/svgjs" width="128" height="128" viewBox="0 0 128 128"><g transform="matrix(0.8046875,0,0,0.8046875,12.303674546687418,24.544574979895657)"><svg viewBox="0 0 96 74" data-background-color="#dfdad6" preserveAspectRatio="xMidYMid meet" height="98" width="128" xmlns="http://www.w3.org/2000/svg" xmlns:xlink="http://www.w3.org/1999/xlink"><g id="tight-bounds" transform="matrix(1,0,0,1,0.26993770607805345,0.11997998846769065)"><svg viewBox="0 0 95.481 73.78091820203124" height="73.78091820203124" width="95.481"><g><svg viewBox="0 0 95.481 73.78091820203124" height="73.78091820203124" width="95.481"><g><svg viewBox="0 0 95.481 73.78091820203124" height="73.78091820203124" width="95.481"><g id="textblocktransform"><svg viewBox="0 0 95.481 73.78091820203124" height="73.78091820203124" width="95.481" id="textblock"><g><svg viewBox="0 0 95.481 73.78091820203124" height="73.78091820203124" width="95.481"><g><svg viewBox="0 0 95.481 73.78091820203124" height="73.78091820203124" width="95.481"><g><svg xmlns="http://www.w3.org/2000/svg" xmlns:xlink="http://www.w3.org/1999/xlink" version="1.1" x="0" y="0" viewBox="5.443 15.316 89.501 69.16" enable-background="new 0 0 100 100" xml:space="preserve" height="73.78091820203124" width="95.481" class="icon-icon-0" data-fill-palette-color="accent" id="icon-0"><path d="M87.62 33.304V36.206C90.127 36.658 92.043 38.847 92.043 41.486L92.037 80.795 83.038 71.793H38.143C35.518 71.793 33.334 69.9 32.867 67.413H29.965C30.463 71.504 33.918 74.695 38.143 74.695H81.837L90.24 83.098C91.181 84.039 91.992 84.476 92.797 84.476 94.137 84.476 94.891 83.308 94.944 82.089V41.486C94.944 37.247 91.731 33.782 87.62 33.304" fill="#ea6b62" data-fill-palette-color="accent"></path><path d="M76.014 64.512A8.704 8.704 0 0 0 84.718 55.807V24.021A8.704 8.704 0 0 0 76.014 15.316H14.148A8.705 8.705 0 0 0 5.443 24.021V75.789S5.564 78.486 8.284 75.766L19.54 64.512z" fill="#ea6b62" data-fill-palette-color="accent"></path></svg></g></svg></g></svg></g></svg></g></svg></g></svg></g><defs></defs></svg><rect width="95.481" height="73.78091820203124" fill="none" stroke="none" visibility="hidden"></rect></g></svg></g></svg>